<svg id="Logo_Blazing_SEO" data-name="Logo Blazing SEO" xmlns="http://www.w3.org/2000/svg" width="387" height="352" viewBox="0 0 387 352">
  <metadata><?xpacket begin="﻿" id="W5M0MpCehiHzreSzNTczkc9d"?>
<x:xmpmeta xmlns:x="adobe:ns:meta/" x:xmptk="Adobe XMP Core 5.6-c140 79.160451, 2017/05/06-01:08:21        ">
   <rdf:RDF xmlns:rdf="http://www.w3.org/1999/02/22-rdf-syntax-ns#">
      <rdf:Description rdf:about=""/>
   </rdf:RDF>
</x:xmpmeta>
                                                                                                    
                                                                                                    
                                                                                                    
                                                                                                    
                                                                                                    
                                                                                                    
                                                                                                    
                                                                                                    
                                                                                                    
                                                                                                    
                                                                                                    
                                                                                                    
                                                                                                    
                                                                                                    
                                                                                                    
                                                                                                    
                                                                                                    
                                                                                                    
                                                                                                    
                                                                                                    
                           
<?xpacket end="w"?></metadata>
<defs>
    <style>
      .cls-1 {
        font-size: 72px;
        font-family: Expressa-Heavy;
      }

      .cls-1, .cls-4 {
        fill: #231f20;
      }

      .cls-2 {
        fill: #f52937;
      }

      .cls-2, .cls-3 {
        fill-rule: evenodd;
      }

      .cls-3 {
        fill: #fff;
      }

      .cls-4 {
        font-size: 59.34px;
        font-family: Metropolis;
        font-weight: 800;
      }
    </style>
  </defs>
  <text id="blazing" class="cls-1" transform="translate(-6.845 314.411) scale(1.716)">blazing</text>
  <path id="Заливка_цветом_1_копія" data-name="Заливка цветом 1 копія" class="cls-2" d="M1669.93,346c3.54,27.882-14.53,34.819-14.05,57.634,0.09,3.466,3.15,9.529,7.02,12.652,3.01,2.908,9.5,5.753,18.27,4.717,10.46-1.576,14.09-7.184,15.46-10.34,4.12-11.038.88-15.941-1.4-26.709,46.62,23.011,27.46,52.384,9.83,71.692-2.27,5-.62,10.46.09,11.956,2.32,5.138,5.65,7.133,9.48,8.507,14.33,3.457,19.19-6.316,28.38-12.029,3.32,129.566-169.65,127.883-178.48,19.68,0.47,0,.94,4.217,1.41,4.217,4.48,2.825,8.1,5.213,14.05,4.217,6.42-.974,10.08-3.583,12.65-8.434,6.43-20.878-11.08-22.008-14.06-36.549C1568.08,395.914,1641.93,385.218,1669.93,346Z" transform="translate(-1456 -346)"/>
  <path id="b" class="cls-3" d="M1623.42,504.271q-2.565,14.478,5.2,23.891t22.36,9.415a37.821,37.821,0,0,0,25.47-9.351,39.709,39.709,0,0,0,13.45-23.955q2.535-14.346-5.02-23.827t-21.64-9.48a35.872,35.872,0,0,0-4.21.257,35.5,35.5,0,0,0-4.99,1.024l-3.36,19.088c1.71-.513,3.01-0.853,3.89-1.025a15.949,15.949,0,0,1,2.99-.256q6.8,0,10.4,3.907t2.47,10.312a16.157,16.157,0,0,1-5.64,9.8,15.547,15.547,0,0,1-10.36,3.907q-6.15,0-9.27-4.1t-2.01-10.376L1656,431l-25,28Z" transform="translate(-1456 -346)"/>
  <text id="seo" class="cls-4" transform="translate(223.345 350.685) scale(0.927)">seo</text>
</svg>
